<mxfile host="app.diagrams.net" agent="Mozilla/5.0 (Windows NT 10.0; Win64; x64) AppleWebKit/537.36 (KHTML, like Gecko) Chrome/135.0.0.0 Safari/537.36" version="26.2.14">
  <diagram name="Страница — 1" id="bx8_xxog-MDYi9NOV8Kx">
    <mxGraphModel dx="4349" dy="1437" grid="1" gridSize="10" guides="1" tooltips="1" connect="1" arrows="1" fold="1" page="1" pageScale="1" pageWidth="827" pageHeight="1169" background="#FFFFFF" math="0" shadow="0">
      <root>
        <mxCell id="0" />
        <mxCell id="1" parent="0" />
        <mxCell id="gwfQxdDXelonZH8tzvoO-82" style="edgeStyle=orthogonalEdgeStyle;rounded=0;orthogonalLoop=1;jettySize=auto;html=1;exitX=0.5;exitY=1;exitDx=0;exitDy=0;entryX=0.5;entryY=0;entryDx=0;entryDy=0;" parent="1" source="gwfQxdDXelonZH8tzvoO-2" target="gwfQxdDXelonZH8tzvoO-6" edge="1">
          <mxGeometry relative="1" as="geometry" />
        </mxCell>
        <mxCell id="gwfQxdDXelonZH8tzvoO-2" value="" style="rounded=0;whiteSpace=wrap;html=1;" parent="1" vertex="1">
          <mxGeometry x="364" y="180" width="100" height="50" as="geometry" />
        </mxCell>
        <mxCell id="gwfQxdDXelonZH8tzvoO-1" value="" style="rounded=0;whiteSpace=wrap;html=1;" parent="1" vertex="1">
          <mxGeometry x="326" y="100" width="176" height="60" as="geometry" />
        </mxCell>
        <mxCell id="gwfQxdDXelonZH8tzvoO-83" style="edgeStyle=orthogonalEdgeStyle;rounded=0;orthogonalLoop=1;jettySize=auto;html=1;exitX=0.5;exitY=1;exitDx=0;exitDy=0;entryX=0.5;entryY=0;entryDx=0;entryDy=0;" parent="1" source="gwfQxdDXelonZH8tzvoO-4" target="gwfQxdDXelonZH8tzvoO-2" edge="1">
          <mxGeometry relative="1" as="geometry" />
        </mxCell>
        <mxCell id="gwfQxdDXelonZH8tzvoO-4" value="&lt;div style=&quot;background-color: rgb(30, 31, 34); color: rgb(188, 190, 196);&quot;&gt;&lt;pre style=&quot;font-family:&#39;JetBrains Mono&#39;,monospace;font-size:9,8pt;&quot;&gt;Пользователь&lt;/pre&gt;&lt;pre style=&quot;font-family:&#39;JetBrains Mono&#39;,monospace;font-size:9,8pt;&quot;&gt;&lt;div style=&quot;background-color:#1e1f22;color:#bcbec4&quot;&gt;&lt;pre style=&quot;font-family:&#39;JetBrains Mono&#39;,monospace;font-size:9,8pt;&quot;&gt;Фронтенд клиент (браузер)&lt;/pre&gt;&lt;/div&gt;&lt;/pre&gt;&lt;/div&gt;" style="text;html=1;align=center;verticalAlign=middle;whiteSpace=wrap;rounded=0;" parent="1" vertex="1">
          <mxGeometry x="364" y="90" width="100" height="75" as="geometry" />
        </mxCell>
        <mxCell id="gwfQxdDXelonZH8tzvoO-5" value="&lt;span style=&quot;background-color: light-dark(#ffffff, var(--ge-dark-color, #121212));&quot;&gt;CDN&lt;/span&gt;" style="text;html=1;align=center;verticalAlign=middle;whiteSpace=wrap;rounded=0;" parent="1" vertex="1">
          <mxGeometry x="384" y="190" width="60" height="30" as="geometry" />
        </mxCell>
        <mxCell id="gwfQxdDXelonZH8tzvoO-81" style="edgeStyle=orthogonalEdgeStyle;rounded=0;orthogonalLoop=1;jettySize=auto;html=1;exitX=0.5;exitY=1;exitDx=0;exitDy=0;entryX=0.5;entryY=0;entryDx=0;entryDy=0;" parent="1" source="gwfQxdDXelonZH8tzvoO-6" target="gwfQxdDXelonZH8tzvoO-13" edge="1">
          <mxGeometry relative="1" as="geometry" />
        </mxCell>
        <mxCell id="gwfQxdDXelonZH8tzvoO-6" value="" style="rounded=0;whiteSpace=wrap;html=1;" parent="1" vertex="1">
          <mxGeometry x="364" y="250" width="100" height="50" as="geometry" />
        </mxCell>
        <mxCell id="gwfQxdDXelonZH8tzvoO-7" value="&lt;div style=&quot;background-color:#1e1f22;color:#bcbec4&quot;&gt;&lt;pre style=&quot;font-family:&#39;JetBrains Mono&#39;,monospace;font-size:9,8pt;&quot;&gt;API Gateway&lt;/pre&gt;&lt;/div&gt;" style="text;html=1;align=center;verticalAlign=middle;whiteSpace=wrap;rounded=0;" parent="1" vertex="1">
          <mxGeometry x="384" y="260" width="60" height="30" as="geometry" />
        </mxCell>
        <mxCell id="gwfQxdDXelonZH8tzvoO-11" value="&lt;div style=&quot;background-color: rgb(30, 31, 34); color: rgb(188, 190, 196);&quot;&gt;&lt;pre style=&quot;font-family:&#39;JetBrains Mono&#39;,monospace;font-size:9,8pt;&quot;&gt;&lt;font style=&quot;font-size: 15px;&quot;&gt;APIЗона доступности A (Active)Gateway&lt;/font&gt;&lt;br&gt;&lt;/pre&gt;&lt;/div&gt;" style="text;html=1;align=center;verticalAlign=middle;whiteSpace=wrap;rounded=0;" parent="1" vertex="1">
          <mxGeometry x="-260" y="270" width="60" height="30" as="geometry" />
        </mxCell>
        <mxCell id="gwfQxdDXelonZH8tzvoO-29" style="edgeStyle=orthogonalEdgeStyle;rounded=0;orthogonalLoop=1;jettySize=auto;html=1;entryX=0.5;entryY=0;entryDx=0;entryDy=0;" parent="1" source="gwfQxdDXelonZH8tzvoO-13" target="gwfQxdDXelonZH8tzvoO-19" edge="1">
          <mxGeometry relative="1" as="geometry" />
        </mxCell>
        <mxCell id="gwfQxdDXelonZH8tzvoO-13" value="" style="rounded=0;whiteSpace=wrap;html=1;" parent="1" vertex="1">
          <mxGeometry x="334" y="320" width="156" height="60" as="geometry" />
        </mxCell>
        <mxCell id="gwfQxdDXelonZH8tzvoO-14" value="&lt;div style=&quot;background-color: rgb(30, 31, 34); color: rgb(188, 190, 196);&quot;&gt;&lt;pre style=&quot;font-family:&#39;JetBrains Mono&#39;,monospace;font-size:9,8pt;&quot;&gt;&lt;div style=&quot;background-color: rgb(30, 31, 34); color: rgb(188, 190, 196);&quot;&gt;&lt;pre style=&quot;font-family:&#39;JetBrains Mono&#39;,monospace;font-size:9,8pt;&quot;&gt;Мониторин&lt;/pre&gt;&lt;pre style=&quot;font-family:&#39;JetBrains Mono&#39;,monospace;font-size:9,8pt;&quot;&gt;Prometheus / Grafana&lt;/pre&gt;&lt;/div&gt;&lt;/pre&gt;&lt;/div&gt;" style="text;html=1;align=center;verticalAlign=middle;whiteSpace=wrap;rounded=0;" parent="1" vertex="1">
          <mxGeometry x="384" y="335" width="60" height="30" as="geometry" />
        </mxCell>
        <mxCell id="gwfQxdDXelonZH8tzvoO-42" style="edgeStyle=orthogonalEdgeStyle;rounded=0;orthogonalLoop=1;jettySize=auto;html=1;exitX=0.5;exitY=1;exitDx=0;exitDy=0;entryX=0.5;entryY=0;entryDx=0;entryDy=0;" parent="1" source="gwfQxdDXelonZH8tzvoO-23" target="gwfQxdDXelonZH8tzvoO-37" edge="1">
          <mxGeometry relative="1" as="geometry" />
        </mxCell>
        <mxCell id="gwfQxdDXelonZH8tzvoO-23" value="&lt;div style=&quot;background-color:#1e1f22;color:#bcbec4&quot;&gt;&lt;pre style=&quot;font-family:&#39;JetBrains Mono&#39;,monospace;font-size:9,8pt;&quot;&gt;InsureTech Web&lt;/pre&gt;&lt;pre style=&quot;font-family:&#39;JetBrains Mono&#39;,monospace;font-size:9,8pt;&quot;&gt;&lt;div&gt;&lt;pre style=&quot;font-family:&#39;JetBrains Mono&#39;,monospace;font-size:9,8pt;&quot;&gt;Веб-приложение&lt;/pre&gt;&lt;/div&gt;&lt;/pre&gt;&lt;/div&gt;" style="rounded=1;whiteSpace=wrap;html=1;fillColor=#dae8fc;strokeColor=#6c8ebf;" parent="1" vertex="1">
          <mxGeometry x="-105" y="445" width="120" height="60" as="geometry" />
        </mxCell>
        <mxCell id="gwfQxdDXelonZH8tzvoO-28" style="edgeStyle=orthogonalEdgeStyle;rounded=0;orthogonalLoop=1;jettySize=auto;html=1;entryX=0.5;entryY=0;entryDx=0;entryDy=0;" parent="1" source="gwfQxdDXelonZH8tzvoO-6" target="gwfQxdDXelonZH8tzvoO-23" edge="1">
          <mxGeometry relative="1" as="geometry" />
        </mxCell>
        <mxCell id="gwfQxdDXelonZH8tzvoO-53" style="edgeStyle=orthogonalEdgeStyle;rounded=0;orthogonalLoop=1;jettySize=auto;html=1;exitX=0.25;exitY=1;exitDx=0;exitDy=0;entryX=0.75;entryY=0;entryDx=0;entryDy=0;" parent="1" source="gwfQxdDXelonZH8tzvoO-37" target="gwfQxdDXelonZH8tzvoO-49" edge="1">
          <mxGeometry relative="1" as="geometry" />
        </mxCell>
        <mxCell id="gwfQxdDXelonZH8tzvoO-54" style="edgeStyle=orthogonalEdgeStyle;rounded=0;orthogonalLoop=1;jettySize=auto;html=1;exitX=0.75;exitY=1;exitDx=0;exitDy=0;entryX=0.5;entryY=0;entryDx=0;entryDy=0;" parent="1" source="gwfQxdDXelonZH8tzvoO-37" target="gwfQxdDXelonZH8tzvoO-50" edge="1">
          <mxGeometry relative="1" as="geometry" />
        </mxCell>
        <mxCell id="gwfQxdDXelonZH8tzvoO-129" style="edgeStyle=orthogonalEdgeStyle;rounded=0;orthogonalLoop=1;jettySize=auto;html=1;exitX=0;exitY=0.25;exitDx=0;exitDy=0;entryX=1;entryY=0.5;entryDx=0;entryDy=0;" parent="1" source="gwfQxdDXelonZH8tzvoO-37" target="gwfQxdDXelonZH8tzvoO-115" edge="1">
          <mxGeometry relative="1" as="geometry" />
        </mxCell>
        <mxCell id="gwfQxdDXelonZH8tzvoO-37" value="&lt;div style=&quot;background-color: rgb(30, 31, 34); color: rgb(188, 190, 196);&quot;&gt;&lt;pre style=&quot;font-family:&#39;JetBrains Mono&#39;,monospace;font-size:9,8pt;&quot;&gt;&lt;div style=&quot;background-color: rgb(30, 31, 34); color: rgb(188, 190, 196);&quot;&gt;&lt;pre style=&quot;font-family:&#39;JetBrains Mono&#39;,monospace;font-size:9,8pt;&quot;&gt;core-app&lt;/pre&gt;&lt;pre style=&quot;font-family:&#39;JetBrains Mono&#39;,monospace;font-size:9,8pt;&quot;&gt;&lt;div style=&quot;background-color:#1e1f22;color:#bcbec4&quot;&gt;&lt;pre style=&quot;font-family:&#39;JetBrains Mono&#39;,monospace;font-size:9,8pt;&quot;&gt;Обработка заявок, публикация событий&lt;/pre&gt;&lt;/div&gt;&lt;/pre&gt;&lt;/div&gt;&lt;/pre&gt;&lt;/div&gt;" style="rounded=1;whiteSpace=wrap;html=1;fillColor=#dae8fc;strokeColor=#6c8ebf;" parent="1" vertex="1">
          <mxGeometry x="-169.5" y="550" width="249" height="60" as="geometry" />
        </mxCell>
        <mxCell id="gwfQxdDXelonZH8tzvoO-40" value="&lt;div style=&quot;background-color: rgb(30, 31, 34); color: rgb(188, 190, 196);&quot;&gt;&lt;pre style=&quot;font-family:&#39;JetBrains Mono&#39;,monospace;font-size:9,8pt;&quot;&gt;&lt;div style=&quot;background-color:#1e1f22;color:#bcbec4&quot;&gt;&lt;pre style=&quot;font-family:&#39;JetBrains Mono&#39;,monospace;font-size:9,8pt;&quot;&gt;ins-comp-settlement&lt;/pre&gt;&lt;pre style=&quot;font-family:&#39;JetBrains Mono&#39;,monospace;font-size:9,8pt;&quot;&gt;&lt;div&gt;&lt;pre style=&quot;font-family:&#39;JetBrains Mono&#39;,monospace;font-size:9,8pt;&quot;&gt;Расчёты, подписка на события&lt;/pre&gt;&lt;/div&gt;&lt;/pre&gt;&lt;/div&gt;&lt;/pre&gt;&lt;/div&gt;" style="rounded=1;whiteSpace=wrap;html=1;fillColor=#dae8fc;strokeColor=#6c8ebf;" parent="1" vertex="1">
          <mxGeometry x="35" y="445" width="200" height="60" as="geometry" />
        </mxCell>
        <mxCell id="gwfQxdDXelonZH8tzvoO-133" style="edgeStyle=orthogonalEdgeStyle;rounded=0;orthogonalLoop=1;jettySize=auto;html=1;exitX=0;exitY=1;exitDx=0;exitDy=0;entryX=1;entryY=0.75;entryDx=0;entryDy=0;" parent="1" source="gwfQxdDXelonZH8tzvoO-45" target="gwfQxdDXelonZH8tzvoO-37" edge="1">
          <mxGeometry relative="1" as="geometry">
            <Array as="points">
              <mxPoint x="334" y="595" />
            </Array>
          </mxGeometry>
        </mxCell>
        <mxCell id="gwfQxdDXelonZH8tzvoO-45" value="" style="rounded=0;whiteSpace=wrap;html=1;" parent="1" vertex="1">
          <mxGeometry x="334" y="440" width="156" height="150" as="geometry" />
        </mxCell>
        <mxCell id="gwfQxdDXelonZH8tzvoO-70" style="edgeStyle=orthogonalEdgeStyle;rounded=0;orthogonalLoop=1;jettySize=auto;html=1;exitX=0.25;exitY=1;exitDx=0;exitDy=0;entryX=1;entryY=0.25;entryDx=0;entryDy=0;" parent="1" source="gwfQxdDXelonZH8tzvoO-46" target="gwfQxdDXelonZH8tzvoO-50" edge="1">
          <mxGeometry relative="1" as="geometry" />
        </mxCell>
        <mxCell id="gwfQxdDXelonZH8tzvoO-46" value="&lt;div style=&quot;background-color: rgb(30, 31, 34); color: rgb(188, 190, 196);&quot;&gt;&lt;pre style=&quot;font-family:&#39;JetBrains Mono&#39;,monospace;font-size:9,8pt;&quot;&gt;&lt;div style=&quot;background-color: rgb(30, 31, 34); color: rgb(188, 190, 196);&quot;&gt;&lt;pre style=&quot;font-family:&#39;JetBrains Mono&#39;,monospace;font-size:9,8pt;&quot;&gt;&lt;div style=&quot;background-color: rgb(30, 31, 34); color: rgb(188, 190, 196);&quot;&gt;&lt;pre style=&quot;font-family:&#39;JetBrains Mono&#39;,monospace;font-size:9,8pt;&quot;&gt;&lt;font style=&quot;font-size: 16px;&quot;&gt;Kafka&lt;/font&gt;&lt;/pre&gt;&lt;pre style=&quot;font-family:&#39;JetBrains Mono&#39;,monospace;font-size:9,8pt;&quot;&gt;&lt;font style=&quot;font-size: 16px;&quot;&gt;&lt;div style=&quot;background-color: rgb(30, 31, 34); color: rgb(188, 190, 196);&quot;&gt;&lt;pre style=&quot;font-family: &amp;quot;JetBrains Mono&amp;quot;, monospace;&quot;&gt;Центральный&lt;/pre&gt;&lt;pre style=&quot;font-family: &amp;quot;JetBrains Mono&amp;quot;, monospace;&quot;&gt;брокер сообщений&lt;/pre&gt;&lt;/div&gt;&lt;/font&gt;&lt;/pre&gt;&lt;/div&gt;&lt;/pre&gt;&lt;/div&gt;&lt;/pre&gt;&lt;/div&gt;" style="text;html=1;align=center;verticalAlign=middle;whiteSpace=wrap;rounded=0;" parent="1" vertex="1">
          <mxGeometry x="340" y="440" width="150" height="145" as="geometry" />
        </mxCell>
        <mxCell id="gwfQxdDXelonZH8tzvoO-50" value="&lt;div style=&quot;background-color: rgb(30, 31, 34); color: rgb(188, 190, 196);&quot;&gt;&lt;pre style=&quot;font-family:&#39;JetBrains Mono&#39;,monospace;font-size:9,8pt;&quot;&gt;&lt;div style=&quot;background-color:#1e1f22;color:#bcbec4&quot;&gt;&lt;pre style=&quot;font-family:&#39;JetBrains Mono&#39;,monospace;font-size:9,8pt;&quot;&gt;ins-product-aggregator&lt;/pre&gt;&lt;pre style=&quot;font-family:&#39;JetBrains Mono&#39;,monospace;font-size:9,8pt;&quot;&gt;&lt;div&gt;&lt;pre style=&quot;font-family:&#39;JetBrains Mono&#39;,monospace;font-size:9,8pt;&quot;&gt;Агрегация тарифов&lt;/pre&gt;&lt;/div&gt;&lt;/pre&gt;&lt;/div&gt;&lt;/pre&gt;&lt;/div&gt;" style="rounded=1;whiteSpace=wrap;html=1;fillColor=#dae8fc;strokeColor=#6c8ebf;" parent="1" vertex="1">
          <mxGeometry x="15" y="657.5" width="170" height="60" as="geometry" />
        </mxCell>
        <mxCell id="gwfQxdDXelonZH8tzvoO-62" value="&lt;div style=&quot;background-color: rgb(30, 31, 34); color: rgb(188, 190, 196);&quot;&gt;&lt;pre style=&quot;font-family:&#39;JetBrains Mono&#39;,monospace;font-size:9,8pt;&quot;&gt;&lt;font style=&quot;font-size: 18px;&quot;&gt;REST&lt;/font&gt;&lt;/pre&gt;&lt;/div&gt;" style="text;whiteSpace=wrap;html=1;align=center;" parent="1" vertex="1">
          <mxGeometry x="-45" y="500" width="50" height="50" as="geometry" />
        </mxCell>
        <mxCell id="gwfQxdDXelonZH8tzvoO-79" value="" style="swimlane;startSize=0;fillColor=#dae8fc;strokeColor=#6c8ebf;dashed=1;strokeWidth=5;" parent="1" vertex="1">
          <mxGeometry x="-720" y="315" width="1150" height="540" as="geometry" />
        </mxCell>
        <mxCell id="gwfQxdDXelonZH8tzvoO-73" value="&lt;div style=&quot;background-color:#1e1f22;color:#bcbec4&quot;&gt;&lt;pre style=&quot;font-family:&#39;JetBrains Mono&#39;,monospace;font-size:9,8pt;&quot;&gt;InsuranceRequestCreated&lt;/pre&gt;&lt;/div&gt;" style="text;whiteSpace=wrap;html=1;" parent="gwfQxdDXelonZH8tzvoO-79" vertex="1">
          <mxGeometry x="840" y="210" width="164" height="40" as="geometry" />
        </mxCell>
        <mxCell id="gwfQxdDXelonZH8tzvoO-19" value="&lt;div style=&quot;background-color:#1e1f22;color:#bcbec4&quot;&gt;&lt;pre style=&quot;font-family:&#39;JetBrains Mono&#39;,monospace;font-size:9,8pt;&quot;&gt;Kubernetes Cluster A&lt;/pre&gt;&lt;pre style=&quot;font-family:&#39;JetBrains Mono&#39;,monospace;font-size:9,8pt;&quot;&gt;&lt;div&gt;&lt;pre style=&quot;font-family:&#39;JetBrains Mono&#39;,monospace;font-size:9,8pt;&quot;&gt;Оркестрация контейнеров&lt;/pre&gt;&lt;/div&gt;&lt;/pre&gt;&lt;/div&gt;" style="ellipse;whiteSpace=wrap;html=1;fillColor=#dae8fc;strokeColor=#6c8ebf;" parent="gwfQxdDXelonZH8tzvoO-79" vertex="1">
          <mxGeometry x="345" y="120" width="180" height="90" as="geometry" />
        </mxCell>
        <mxCell id="gwfQxdDXelonZH8tzvoO-49" value="&lt;div style=&quot;background-color: rgb(30, 31, 34); color: rgb(188, 190, 196);&quot;&gt;&lt;pre style=&quot;font-family:&#39;JetBrains Mono&#39;,monospace;font-size:9,8pt;&quot;&gt;client-info&lt;/pre&gt;&lt;pre style=&quot;font-family:&#39;JetBrains Mono&#39;,monospace;font-size:9,8pt;&quot;&gt;&lt;div style=&quot;background-color:#1e1f22;color:#bcbec4&quot;&gt;&lt;pre style=&quot;font-family:&#39;JetBrains Mono&#39;,monospace;font-size:9,8pt;&quot;&gt;Управление клиентами, публикация событий&lt;/pre&gt;&lt;/div&gt;&lt;/pre&gt;&lt;/div&gt;" style="rounded=1;whiteSpace=wrap;html=1;fillColor=#dae8fc;strokeColor=#6c8ebf;" parent="gwfQxdDXelonZH8tzvoO-79" vertex="1">
          <mxGeometry x="300" y="350" width="270" height="60" as="geometry" />
        </mxCell>
        <mxCell id="gwfQxdDXelonZH8tzvoO-57" value="&lt;div style=&quot;background-color: rgb(30, 31, 34); color: rgb(188, 190, 196);&quot;&gt;&lt;pre style=&quot;font-family:&#39;JetBrains Mono&#39;,monospace;font-size:9,8pt;&quot;&gt;&lt;font style=&quot;font-size: 18px;&quot;&gt;REST&lt;/font&gt;&lt;/pre&gt;&lt;/div&gt;" style="text;whiteSpace=wrap;html=1;align=center;" parent="gwfQxdDXelonZH8tzvoO-79" vertex="1">
          <mxGeometry x="710" y="300" width="50" height="50" as="geometry" />
        </mxCell>
        <mxCell id="gwfQxdDXelonZH8tzvoO-58" value="&lt;div style=&quot;background-color: rgb(30, 31, 34); color: rgb(188, 190, 196);&quot;&gt;&lt;pre style=&quot;font-family:&#39;JetBrains Mono&#39;,monospace;font-size:9,8pt;&quot;&gt;&lt;font style=&quot;font-size: 18px;&quot;&gt;REST&lt;/font&gt;&lt;/pre&gt;&lt;/div&gt;" style="text;whiteSpace=wrap;html=1;align=center;" parent="gwfQxdDXelonZH8tzvoO-79" vertex="1">
          <mxGeometry x="550" y="305" width="50" height="50" as="geometry" />
        </mxCell>
        <mxCell id="gwfQxdDXelonZH8tzvoO-103" value="&lt;div style=&quot;background-color: rgb(30, 31, 34); color: rgb(188, 190, 196);&quot;&gt;&lt;pre style=&quot;font-family:&#39;JetBrains Mono&#39;,monospace;font-size:9,8pt;&quot;&gt;&lt;font style=&quot;font-size: 15px;&quot;&gt;JDBC&lt;/font&gt;&lt;/pre&gt;&lt;/div&gt;" style="text;whiteSpace=wrap;html=1;align=center;" parent="gwfQxdDXelonZH8tzvoO-79" vertex="1">
          <mxGeometry x="435" y="460" width="50" height="40" as="geometry" />
        </mxCell>
        <mxCell id="gwfQxdDXelonZH8tzvoO-105" value="&lt;div style=&quot;background-color: rgb(30, 31, 34); color: rgb(188, 190, 196);&quot;&gt;&lt;pre style=&quot;font-family:&#39;JetBrains Mono&#39;,monospace;font-size:9,8pt;&quot;&gt;&lt;font style=&quot;font-size: 15px;&quot;&gt;JDBC&lt;/font&gt;&lt;/pre&gt;&lt;/div&gt;" style="text;whiteSpace=wrap;html=1;align=center;" parent="gwfQxdDXelonZH8tzvoO-79" vertex="1">
          <mxGeometry x="619" y="450" width="50" height="40" as="geometry" />
        </mxCell>
        <mxCell id="gwfQxdDXelonZH8tzvoO-106" value="&lt;div style=&quot;background-color: rgb(30, 31, 34); color: rgb(188, 190, 196);&quot;&gt;&lt;pre style=&quot;font-family:&#39;JetBrains Mono&#39;,monospace;font-size:9,8pt;&quot;&gt;&lt;font style=&quot;font-size: 15px;&quot;&gt;JDBC&lt;/font&gt;&lt;/pre&gt;&lt;/div&gt;" style="text;whiteSpace=wrap;html=1;align=center;" parent="gwfQxdDXelonZH8tzvoO-79" vertex="1">
          <mxGeometry x="825" y="470" width="50" height="40" as="geometry" />
        </mxCell>
        <mxCell id="gwfQxdDXelonZH8tzvoO-63" value="&lt;div style=&quot;background-color:#1e1f22;color:#bcbec4&quot;&gt;&lt;pre style=&quot;font-family:&#39;JetBrains Mono&#39;,monospace;font-size:9,8pt;&quot;&gt;Подписка: InsuranceRequestCreated&lt;/pre&gt;&lt;/div&gt;" style="text;whiteSpace=wrap;html=1;align=center;" parent="gwfQxdDXelonZH8tzvoO-79" vertex="1">
          <mxGeometry x="900" y="350" width="250" height="40" as="geometry" />
        </mxCell>
        <mxCell id="gwfQxdDXelonZH8tzvoO-115" value="&lt;div style=&quot;background-color: rgb(30, 31, 34); color: rgb(188, 190, 196);&quot;&gt;&lt;pre style=&quot;font-family:&#39;JetBrains Mono&#39;,monospace;font-size:9,8pt;&quot;&gt;&lt;div style=&quot;background-color:#1e1f22;color:#bcbec4&quot;&gt;&lt;pre style=&quot;font-family:&#39;JetBrains Mono&#39;,monospace;font-size:9,8pt;&quot;&gt;osago-Aggregator&lt;/pre&gt;&lt;/div&gt;&lt;/pre&gt;&lt;pre style=&quot;font-family:&#39;JetBrains Mono&#39;,monospace;font-size:9,8pt;&quot;&gt;&lt;div style=&quot;background-color:#1e1f22;color:#bcbec4&quot;&gt;&lt;pre style=&quot;font-family:&#39;JetBrains Mono&#39;,monospace;font-size:9,8pt;&quot;&gt;Запросы в страховые по ОСАГО&lt;/pre&gt;&lt;/div&gt;&lt;/pre&gt;&lt;/div&gt;" style="rounded=1;whiteSpace=wrap;html=1;fillColor=#dae8fc;strokeColor=#6c8ebf;" parent="gwfQxdDXelonZH8tzvoO-79" vertex="1">
          <mxGeometry x="170" y="220" width="200" height="60" as="geometry" />
        </mxCell>
        <mxCell id="gwfQxdDXelonZH8tzvoO-130" value="&lt;div style=&quot;background-color: rgb(30, 31, 34); color: rgb(188, 190, 196);&quot;&gt;&lt;pre style=&quot;font-family:&#39;JetBrains Mono&#39;,monospace;font-size:9,8pt;&quot;&gt;&lt;font style=&quot;font-size: 16px;&quot;&gt;OsagoOfferReceived&lt;/font&gt;&lt;/pre&gt;&lt;/div&gt;" style="text;whiteSpace=wrap;html=1;align=center;" parent="gwfQxdDXelonZH8tzvoO-79" vertex="1">
          <mxGeometry x="220" y="65" width="160" height="40" as="geometry" />
        </mxCell>
        <mxCell id="gwfQxdDXelonZH8tzvoO-134" value="&lt;div style=&quot;background-color: rgb(30, 31, 34); color: rgb(188, 190, 196);&quot;&gt;&lt;pre style=&quot;font-family:&#39;JetBrains Mono&#39;,monospace;font-size:9,8pt;&quot;&gt;&lt;font style=&quot;font-size: 15px;&quot;&gt;Подписка на OsagoOfferReceived&lt;/font&gt;&lt;/pre&gt;&lt;/div&gt;" style="text;whiteSpace=wrap;html=1;align=center;" parent="gwfQxdDXelonZH8tzvoO-79" vertex="1">
          <mxGeometry x="890" y="265" width="230" height="40" as="geometry" />
        </mxCell>
        <mxCell id="gwfQxdDXelonZH8tzvoO-139" value="&lt;div style=&quot;background-color: rgb(30, 31, 34); color: rgb(188, 190, 196);&quot;&gt;&lt;pre style=&quot;font-family:&#39;JetBrains Mono&#39;,monospace;font-size:9,8pt;&quot;&gt;&lt;font style=&quot;font-size: 15px;&quot;&gt;JDBC&lt;/font&gt;&lt;/pre&gt;&lt;/div&gt;" style="text;whiteSpace=wrap;html=1;align=center;" parent="gwfQxdDXelonZH8tzvoO-79" vertex="1">
          <mxGeometry x="50" y="335" width="50" height="40" as="geometry" />
        </mxCell>
        <mxCell id="gwfQxdDXelonZH8tzvoO-140" value="&lt;div style=&quot;background-color: rgb(30, 31, 34); color: rgb(188, 190, 196);&quot;&gt;&lt;pre style=&quot;font-family:&#39;JetBrains Mono&#39;,monospace;font-size:9,8pt;&quot;&gt;&lt;font style=&quot;font-size: 18px;&quot;&gt;REST&lt;/font&gt;&lt;/pre&gt;&lt;/div&gt;" style="text;whiteSpace=wrap;html=1;align=center;" parent="gwfQxdDXelonZH8tzvoO-79" vertex="1">
          <mxGeometry x="20" y="120" width="50" height="50" as="geometry" />
        </mxCell>
        <mxCell id="gwfQxdDXelonZH8tzvoO-102" style="edgeStyle=orthogonalEdgeStyle;rounded=0;orthogonalLoop=1;jettySize=auto;html=1;exitX=0.855;exitY=1;exitDx=0;exitDy=-4.35;exitPerimeter=0;entryX=0.25;entryY=0;entryDx=0;entryDy=0;" parent="1" source="gwfQxdDXelonZH8tzvoO-84" target="gwfQxdDXelonZH8tzvoO-101" edge="1">
          <mxGeometry relative="1" as="geometry" />
        </mxCell>
        <mxCell id="gwfQxdDXelonZH8tzvoO-84" value="&lt;div style=&quot;background-color: rgb(30, 31, 34); color: rgb(188, 190, 196);&quot;&gt;&lt;pre style=&quot;font-family:&#39;JetBrains Mono&#39;,monospace;font-size:9,8pt;&quot;&gt;PostgreSQL Master (A)&lt;/pre&gt;&lt;pre style=&quot;font-family:&#39;JetBrains Mono&#39;,monospace;font-size:9,8pt;&quot;&gt;&lt;div style=&quot;background-color:#1e1f22;color:#bcbec4&quot;&gt;&lt;pre style=&quot;font-family:&#39;JetBrains Mono&#39;,monospace;font-size:9,8pt;&quot;&gt;Основная БД — активна&lt;/pre&gt;&lt;/div&gt;&lt;/pre&gt;&lt;/div&gt;" style="shape=cylinder3;whiteSpace=wrap;html=1;boundedLbl=1;backgroundOutline=1;size=15;fillColor=#dae8fc;strokeColor=#6c8ebf;" parent="1" vertex="1">
          <mxGeometry x="-140" y="910" width="210" height="120" as="geometry" />
        </mxCell>
        <mxCell id="gwfQxdDXelonZH8tzvoO-88" style="edgeStyle=orthogonalEdgeStyle;rounded=0;orthogonalLoop=1;jettySize=auto;html=1;exitX=0.5;exitY=1;exitDx=0;exitDy=0;entryX=0.145;entryY=0;entryDx=0;entryDy=4.35;entryPerimeter=0;" parent="1" source="gwfQxdDXelonZH8tzvoO-49" target="gwfQxdDXelonZH8tzvoO-84" edge="1">
          <mxGeometry relative="1" as="geometry" />
        </mxCell>
        <mxCell id="gwfQxdDXelonZH8tzvoO-89" style="edgeStyle=orthogonalEdgeStyle;rounded=0;orthogonalLoop=1;jettySize=auto;html=1;exitX=0.5;exitY=1;exitDx=0;exitDy=0;entryX=0.667;entryY=-0.005;entryDx=0;entryDy=0;entryPerimeter=0;" parent="1" source="gwfQxdDXelonZH8tzvoO-50" target="gwfQxdDXelonZH8tzvoO-84" edge="1">
          <mxGeometry relative="1" as="geometry" />
        </mxCell>
        <mxCell id="gwfQxdDXelonZH8tzvoO-91" style="edgeStyle=orthogonalEdgeStyle;rounded=0;orthogonalLoop=1;jettySize=auto;html=1;exitX=1;exitY=1;exitDx=0;exitDy=0;entryX=1.001;entryY=0.44;entryDx=0;entryDy=0;entryPerimeter=0;" parent="1" source="gwfQxdDXelonZH8tzvoO-40" target="gwfQxdDXelonZH8tzvoO-84" edge="1">
          <mxGeometry relative="1" as="geometry" />
        </mxCell>
        <mxCell id="gwfQxdDXelonZH8tzvoO-93" style="edgeStyle=orthogonalEdgeStyle;rounded=0;orthogonalLoop=1;jettySize=auto;html=1;exitX=0.5;exitY=1;exitDx=0;exitDy=0;entryX=0.454;entryY=0.027;entryDx=0;entryDy=0;entryPerimeter=0;" parent="1" source="gwfQxdDXelonZH8tzvoO-37" target="gwfQxdDXelonZH8tzvoO-84" edge="1">
          <mxGeometry relative="1" as="geometry" />
        </mxCell>
        <mxCell id="gwfQxdDXelonZH8tzvoO-101" value="&lt;div style=&quot;background-color:#1e1f22;color:#bcbec4&quot;&gt;&lt;pre style=&quot;font-family:&#39;JetBrains Mono&#39;,monospace;font-size:9,8pt;&quot;&gt;Хранилище бэкапов&lt;/pre&gt;&lt;pre style=&quot;font-family:&#39;JetBrains Mono&#39;,monospace;font-size:9,8pt;&quot;&gt;&lt;div&gt;&lt;pre style=&quot;font-family:&#39;JetBrains Mono&#39;,monospace;font-size:9,8pt;&quot;&gt;Объектное хранилище&lt;/pre&gt;&lt;/div&gt;&lt;/pre&gt;&lt;/div&gt;" style="rounded=0;whiteSpace=wrap;html=1;" parent="1" vertex="1">
          <mxGeometry x="40" y="1080" width="156" height="60" as="geometry" />
        </mxCell>
        <mxCell id="gwfQxdDXelonZH8tzvoO-104" value="&lt;div style=&quot;background-color: rgb(30, 31, 34); color: rgb(188, 190, 196);&quot;&gt;&lt;pre style=&quot;font-family:&#39;JetBrains Mono&#39;,monospace;font-size:9,8pt;&quot;&gt;&lt;font style=&quot;font-size: 15px;&quot;&gt;JDBC&lt;/font&gt;&lt;/pre&gt;&lt;/div&gt;" style="text;whiteSpace=wrap;html=1;align=center;" parent="1" vertex="1">
          <mxGeometry x="170" y="920" width="50" height="40" as="geometry" />
        </mxCell>
        <mxCell id="gwfQxdDXelonZH8tzvoO-132" style="edgeStyle=orthogonalEdgeStyle;rounded=0;orthogonalLoop=1;jettySize=auto;html=1;exitX=1;exitY=0.25;exitDx=0;exitDy=0;entryX=0.027;entryY=0.829;entryDx=0;entryDy=0;entryPerimeter=0;" parent="1" source="gwfQxdDXelonZH8tzvoO-37" target="gwfQxdDXelonZH8tzvoO-45" edge="1">
          <mxGeometry relative="1" as="geometry" />
        </mxCell>
        <mxCell id="gwfQxdDXelonZH8tzvoO-135" value="&lt;div style=&quot;background-color: rgb(30, 31, 34); color: rgb(188, 190, 196);&quot;&gt;&lt;pre style=&quot;font-family:&#39;JetBrains Mono&#39;,monospace;font-size:9,8pt;&quot;&gt;&lt;font style=&quot;font-size: 15px;&quot;&gt;Страховые компании&lt;/font&gt;&lt;/pre&gt;&lt;pre style=&quot;font-family:&#39;JetBrains Mono&#39;,monospace;font-size:9,8pt;&quot;&gt;&lt;font style=&quot;font-size: 15px;&quot;&gt;&lt;div style=&quot;background-color:#1e1f22;color:#bcbec4&quot;&gt;&lt;pre style=&quot;font-family:&#39;JetBrains Mono&#39;,monospace;font-size:9,8pt;&quot;&gt;REST API: /create, /getOffer&lt;/pre&gt;&lt;/div&gt;&lt;/font&gt;&lt;/pre&gt;&lt;/div&gt;" style="rounded=0;whiteSpace=wrap;html=1;" parent="1" vertex="1">
          <mxGeometry x="-990" y="450" width="240" height="90" as="geometry" />
        </mxCell>
        <mxCell id="gwfQxdDXelonZH8tzvoO-136" style="edgeStyle=orthogonalEdgeStyle;rounded=0;orthogonalLoop=1;jettySize=auto;html=1;exitX=0;exitY=0.25;exitDx=0;exitDy=0;entryX=1;entryY=0.25;entryDx=0;entryDy=0;" parent="1" source="gwfQxdDXelonZH8tzvoO-115" target="gwfQxdDXelonZH8tzvoO-135" edge="1">
          <mxGeometry relative="1" as="geometry" />
        </mxCell>
        <mxCell id="gwfQxdDXelonZH8tzvoO-137" value="&lt;div style=&quot;background-color: rgb(30, 31, 34); color: rgb(188, 190, 196);&quot;&gt;&lt;pre style=&quot;font-family:&#39;JetBrains Mono&#39;,monospace;font-size:9,8pt;&quot;&gt;&lt;font style=&quot;font-size: 15px;&quot;&gt;osago-db&lt;/font&gt;&lt;/pre&gt;&lt;pre style=&quot;font-family:&#39;JetBrains Mono&#39;,monospace;font-size:9,8pt;&quot;&gt;&lt;font style=&quot;font-size: 15px;&quot;&gt;&lt;div style=&quot;background-color:#1e1f22;color:#bcbec4&quot;&gt;&lt;pre style=&quot;font-family:&#39;JetBrains Mono&#39;,monospace;font-size:9,8pt;&quot;&gt;PostgreSQL / Redis&lt;/pre&gt;&lt;/div&gt;&lt;/font&gt;&lt;/pre&gt;&lt;pre style=&quot;font-family:&#39;JetBrains Mono&#39;,monospace;font-size:9,8pt;&quot;&gt;&lt;div&gt;&lt;pre style=&quot;font-family:&#39;JetBrains Mono&#39;,monospace;font-size:9,8pt;&quot;&gt;&lt;font style=&quot;font-size: 15px;&quot;&gt;Хранилище заявок ОСАГО&lt;/font&gt;&lt;/pre&gt;&lt;/div&gt;&lt;/pre&gt;&lt;/div&gt;" style="shape=cylinder3;whiteSpace=wrap;html=1;boundedLbl=1;backgroundOutline=1;size=15;fillColor=#dae8fc;strokeColor=#6c8ebf;" parent="1" vertex="1">
          <mxGeometry x="-950" y="620" width="200" height="150" as="geometry" />
        </mxCell>
        <mxCell id="gwfQxdDXelonZH8tzvoO-138" style="edgeStyle=orthogonalEdgeStyle;rounded=0;orthogonalLoop=1;jettySize=auto;html=1;exitX=0;exitY=1;exitDx=0;exitDy=0;entryX=1;entryY=0;entryDx=0;entryDy=75;entryPerimeter=0;" parent="1" source="gwfQxdDXelonZH8tzvoO-115" target="gwfQxdDXelonZH8tzvoO-137" edge="1">
          <mxGeometry relative="1" as="geometry" />
        </mxCell>
        <mxCell id="gwfQxdDXelonZH8tzvoO-142" style="edgeStyle=orthogonalEdgeStyle;rounded=0;orthogonalLoop=1;jettySize=auto;html=1;exitX=0.25;exitY=0;exitDx=0;exitDy=0;entryX=0.25;entryY=0;entryDx=0;entryDy=0;" parent="1" source="gwfQxdDXelonZH8tzvoO-115" target="gwfQxdDXelonZH8tzvoO-46" edge="1">
          <mxGeometry relative="1" as="geometry" />
        </mxCell>
      </root>
    </mxGraphModel>
  </diagram>
</mxfile>
